<svg xmlns="http://www.w3.org/2000/svg" width="550" height="550" viewBox="0 0 48 48"><path fill="none" stroke="#000" stroke-linecap="round" stroke-linejoin="round" stroke-miterlimit="10" stroke-width="3" d="m36.293 11.719-.7 2.665a1 1 0 0 0 .256.957l1.939 1.96a1 1 0 0 1 0 1.406l-1.939 1.96a1 1 0 0 0-.256.957l.699 2.665a1 1 0 0 1-.704 1.219l-2.658.724a.999.999 0 0 0-.702.702l-.724 2.658a1 1 0 0 1-1.219.704l-2.666-.699a1 1 0 0 0-.957.256l-1.961 1.938a1 1 0 0 1-1.406 0l-1.961-1.938a1 1 0 0 0-.957-.256l-2.666.699a1 1 0 0 1-1.218-.704l-.725-2.658a.999.999 0 0 0-.702-.702l-2.658-.724a1 1 0 0 1-.704-1.219l.7-2.665a1 1 0 0 0-.256-.957l-1.939-1.96M12.406 14.385l-.699-2.666a1 1 0 0 1 .704-1.218l2.658-.725a.999.999 0 0 0 .702-.702l.724-2.658a1 1 0 0 1 1.219-.704l2.665.7a1 1 0 0 0 .957-.256l1.96-1.939a1 1 0 0 1 1.406 0l1.96 1.939a1 1 0 0 0 .957.256l2.666-.699a1 1 0 0 1 1.218.704l.725 2.658"/><path fill="none" stroke="#000" stroke-linecap="round" stroke-linejoin="round" stroke-width="3" d="M31.5 34.074v8.557a1 1 0 0 1-1.555.832l-4.836-3.224a2 2 0 0 0-2.219 0l-4.835 3.223a1 1 0 0 1-1.555-.831V30.042M23.724 24.499a6.5 6.5 0 1 1 6.776-6.494"/></svg>