<svg xmlns="http://www.w3.org/2000/svg" width="550" height="550" viewBox="0 0 48 48"><path fill="#ffab91" d="M39.133 45H16.867A2.868 2.868 0 0 1 14 42.133V23.857C14 16.204 20.204 10 27.857 10h.285C35.796 10 42 16.204 42 23.857v18.276A2.868 2.868 0 0 1 39.133 45z"/><circle cx="44.5" cy="17.5" r="3.5" fill="#18193f"/><path fill="none" stroke="#18193f" stroke-miterlimit="10" stroke-width="3" d="M44.5 17.5v9a3 3 0 0 1-3 3h-4"/><path fill="none" stroke="#18193f" stroke-linecap="round" stroke-linejoin="round" stroke-miterlimit="10" stroke-width="3" d="M22.67 20.5h9.83c.552 0 1 .504 1 1.125v6.75c0 .621-.448 1.125-1 1.125h-17c-.552 0-1-.504-1-1.125v-6.75c0-.621.448-1.125 1-1.125h7.17zM21 21v8M27 21v8"/><path fill="none" stroke="#18193f" stroke-linecap="round" stroke-linejoin="round" stroke-miterlimit="10" stroke-width="3" d="M17.617 6.977A14.437 14.437 0 0 1 24 5.5h0c8.008 0 14.5 6.492 14.5 14.5v19.5a3 3 0 0 1-3 3h-2"/><path fill="none" stroke="#18193f" stroke-linecap="round" stroke-miterlimit="10" stroke-width="3" d="M27.723 42.5H12.5a3 3 0 0 1-3-3V20c0-2.872.835-5.548 2.275-7.801M17.617 36.443h12.766"/></svg>