<svg xmlns="http://www.w3.org/2000/svg" width="550" height="550" baseProfile="basic" viewBox="0 0 64 64"><path fill="#fd3c4f" d="M54.274 15.661c-4.882-4.882-12.796-4.882-17.678 0L32 20.257l-4.596-4.596c-4.882-4.881-12.796-4.881-17.678 0-4.882 4.882-4.882 12.796 0 17.678l16.107 16.107a8.72 8.72 0 0 0 12.333 0l16.107-16.107c4.882-4.882 4.882-12.796.001-17.678z"/><path fill="#cd2e42" d="M54.107 15.497c-4.954-4.777-12.936-4.41-17.803.456L32 20.257v6.947c0 .981 1.015 1.68 1.903 1.263a4.966 4.966 0 0 1 3.021-.383c1.954.354 3.56 1.9 3.964 3.844A5.005 5.005 0 0 1 36 38c-.73 0-1.422-.159-2.044-.443-.914-.416-1.956.184-1.956 1.188V52a8.692 8.692 0 0 0 6.166-2.555l16.107-16.107c4.937-4.936 4.881-12.974-.166-17.841z"/><path fill="none" stroke="#fff" stroke-linecap="round" stroke-linejoin="round" stroke-miterlimit="10" stroke-width="3" d="M40.132 19.197A7.448 7.448 0 0 1 45.435 17M13.262 19.197A7.448 7.448 0 0 1 18.565 17"/><path fill="#fff" d="m32 20.257-4.596-4.596c-4.882-4.881-12.796-4.881-17.678 0-4.882 4.882-4.882 12.796 0 17.678l3.536 3.536a5 5 0 0 0 0-7.071c-2.924-2.924-2.924-7.682 0-10.606 2.925-2.924 7.491-3.197 10.896.309 1.806 1.859 5.881 2.493 7.842.75z" opacity=".3"/><path d="M54.274 33.339c4.882-4.882 4.882-12.796 0-17.678a12.459 12.459 0 0 0-4.17-2.758 5 5 0 0 0 .635 6.294c1.417 1.417 2.197 3.3 2.197 5.303s-.78 3.886-2.197 5.303L34.631 45.91c-1.6 1.6-1.866 4.006-.844 5.901a8.672 8.672 0 0 0 4.379-2.365l16.108-16.107z" opacity=".15"/><ellipse cx="32" cy="61" opacity=".3" rx="20" ry="3"/></svg>