<svg xmlns="http://www.w3.org/2000/svg" width="550" height="550" viewBox="0 0 48 48"><path fill="#a5d6a7" d="M41.091 44H14.909A2.908 2.908 0 0 1 12 41.091V14.909A2.908 2.908 0 0 1 14.909 12h26.182A2.908 2.908 0 0 1 44 14.909v26.182A2.908 2.908 0 0 1 41.091 44z"/><path fill="#18193f" d="M19 14h-6a1 1 0 0 0-1 1v6a1 1 0 0 0 1 1h7v-7a1 1 0 0 0-1-1zM35 14h-6a1 1 0 0 0-1 1v7h7a1 1 0 0 0 1-1v-6a1 1 0 0 0-1-1zM20 26h-3a1 1 0 0 0-1 1v7.5a1.5 1.5 0 1 0 3 0V33h10v1.5a1.5 1.5 0 1 0 3 0V27a1 1 0 0 0-1-1h-3v-4h-8v4z"/><path fill="none" stroke="#18193f" stroke-linecap="round" stroke-linejoin="round" stroke-miterlimit="10" stroke-width="3" d="M40.5 33.5v4a3 3 0 0 1-3 3h-27a3 3 0 0 1-3-3V24.362M7.5 16.702V10.5a3 3 0 0 1 3-3h27a3 3 0 0 1 3 3V26"/></svg>