<svg xmlns="http://www.w3.org/2000/svg" width="550" height="550" viewBox="0 0 48 48"><path d="M18.5 34.298a1.5 1.5 0 0 0 1.5-1.5V31a3 3 0 0 0-3-3H8c-.55 0-1-.45-1-1v-6c0-.55.45-1 1-1h9a3 3 0 0 0 3-3V8c0-.55.45-1 1-1h6c.55 0 1 .45 1 1v9a3 3 0 0 0 3 3h1.138a1.5 1.5 0 0 0 0-3H31V8a4 4 0 0 0-4-4h-6a4 4 0 0 0-4 4v9H8a4 4 0 0 0-4 4v6a4 4 0 0 0 4 4h9v1.798a1.5 1.5 0 0 0 1.5 1.5zM40 17h-1.096a1.5 1.5 0 0 0 0 3H40c.55 0 1 .45 1 1v6c0 .55-.45 1-1 1h-9a3 3 0 0 0-3 3v9c0 .55-.45 1-1 1h-6c-.55 0-1-.45-1-1v-.755a1.5 1.5 0 0 0-3 0V40a4 4 0 0 0 4 4h6a4 4 0 0 0 4-4v-9h9a4 4 0 0 0 4-4v-6a4 4 0 0 0-4-4z"/></svg>