<svg xmlns="http://www.w3.org/2000/svg" width="550" height="550" baseProfile="basic" viewBox="0 0 48 48"><path fill="#f57c00" d="m22.142 41.485 3.001-5 1.715 1.03-3 4.999z"/><path fill="#f57c00" d="m18.555 44.832-1.109-1.664C17.778 42.946 20.762 41 23 41c2.588 0 3.843 2.448 3.895 2.553l-1.786.9C25.101 44.438 24.342 43 23 43c-1.387 0-3.68 1.322-4.445 1.832z"/><path fill="#ffd600" d="M9 10c0-4 3-7 7-7 3.709 0 8 3 8 10 10 0 19 13 19 13-2 5-7 12-16 12C16 38 8 28 8 22c0-5 3-8 3-8l-2-4z"/><path fill="#ffee58" d="M22 15s-3.212 1.847-4 5c-1 4 3.706 8 9 8 6 0 9-3.25 9-3.25S29.412 16.083 22 15z"/><path fill="#f57c00" d="M9 10c-1 1-3 4-3 4h6s-2-2-3-4z"/><circle cx="13" cy="9" r="1" fill="#212121"/></svg>