<svg xmlns="http://www.w3.org/2000/svg" width="550" height="550" viewBox="0 0 48 48"><path fill="#ffab91" d="M47.029 17.192h-1.817v-1.817a.909.909 0 0 0-.908-.908h-1.817V12.65a.909.909 0 0 0-.908-.908h-9.083a.909.909 0 0 0-.908.908v1.201l-.502.615h-1.315a.909.909 0 0 0-.908.908v1.817h-2.725v-1.817a.909.909 0 0 0-.908-.908h-1.817V12.65a.909.909 0 0 0-.908-.908h-9.083a.909.909 0 0 0-.908.908v1.716l-.097.101h-1.72a.909.909 0 0 0-.908.908v1.817H7.971a.909.909 0 0 0-.908.908v8.175c0 .501.407.908.908.908h1.817V29c0 .501.407.908.908.908h1.817v-.048l.049.048h-.049v1.817c0 .501.407.908.908.908h1.817v-.097l.099.097h-.099v1.817c0 .501.407.908.908.908h1.817v1.817c0 .501.407.908.908.908h1.817V39.9c0 .501.407.908.908.908h1.817v1.817c0 .501.407.908.908.908h1.817v1.817c0 .501.407.908.908.908h.908a.909.909 0 0 0 .908-.908v-1.817h1.817a.909.909 0 0 0 .908-.908v-1.817h1.817a.909.909 0 0 0 .908-.908v-1.817h1.817a.909.909 0 0 0 .908-.908v-1.817h1.817a.909.909 0 0 0 .908-.908v-1.817h1.817a.909.909 0 0 0 .908-.908v-1.817h1.817a.909.909 0 0 0 .908-.908v-1.817h1.817a.909.909 0 0 0 .908-.908V18.1a.908.908 0 0 0-.908-.908z"/><path fill="#18193f" d="M24 15h-1a1 1 0 0 1-1-1v-2h3v2a1 1 0 0 1-1 1zM24 44h-1a1 1 0 0 1-1-1v-2h3v2a1 1 0 0 1-1 1zM22 12h-2a1 1 0 0 1-1-1V9h2a1 1 0 0 1 1 1v2zM6 12H4v-2a1 1 0 0 1 1-1h2v2a1 1 0 0 1-1 1zM7 26H5a1 1 0 0 1-1-1v-2h2a1 1 0 0 1 1 1v2zM13 32h-2a1 1 0 0 1-1-1v-2h2a1 1 0 0 1 1 1v2zM16 35h-2a1 1 0 0 1-1-1v-2h2a1 1 0 0 1 1 1v2zM19 38h-2a1 1 0 0 1-1-1v-2h2a1 1 0 0 1 1 1v2zM22 41h-2a1 1 0 0 1-1-1v-2h2a1 1 0 0 1 1 1v2zM19 9H7V7a1 1 0 0 1 1-1h10a1 1 0 0 1 1 1v2zM1 22v-9a1 1 0 0 1 1-1h2v11H2a1 1 0 0 1-1-1zM37 29h2a1 1 0 0 0 1-1v-2h-2a1 1 0 0 0-1 1v2zM40 26h2a1 1 0 0 0 1-1v-2h-2a1 1 0 0 0-1 1v2zM34 32h2a1 1 0 0 0 1-1v-2h-2a1 1 0 0 0-1 1v2zM31 35h2a1 1 0 0 0 1-1v-2h-2a1 1 0 0 0-1 1v2zM28 38h2a1 1 0 0 0 1-1v-2h-2a1 1 0 0 0-1 1v2zM25 41h2a1 1 0 0 0 1-1v-2h-2a1 1 0 0 0-1 1v2zM28 9h12V7a1 1 0 0 0-1-1H29a1 1 0 0 0-1 1v2zM46 22v-9a1 1 0 0 0-1-1h-2v11h2a1 1 0 0 0 1-1zM25 12h2a1 1 0 0 0 1-1V9h-2a1 1 0 0 0-1 1v2z"/></svg>