<svg xmlns="http://www.w3.org/2000/svg" width="550" height="550" viewBox="0 0 48 48"><path fill="#90caf9" d="M46 9h-7a1 1 0 0 0-1 1v2h-2a1 1 0 0 0-1 1v2h-2a1 1 0 0 0-1 1v2h-2a1 1 0 0 0-1 1v2h-2a1 1 0 0 0-1 1v2h-2a1 1 0 0 0-1 1v2h-3v-2a1 1 0 0 0-1-1h-2v-2a1 1 0 0 0-1-1h-4a1 1 0 0 0-1 1v4a1 1 0 0 0 1 1h2v5a1 1 0 0 0 1 1h2v3h-2a1 1 0 0 0-1 1v2H9a1 1 0 0 0-1 1v7a1 1 0 0 0 1 1h7a1 1 0 0 0 1-1v-5h2a1 1 0 0 0 1-1v-2h3v2a1 1 0 0 0 1 1h5v2a1 1 0 0 0 1 1h4a1 1 0 0 0 1-1v-4a1 1 0 0 0-1-1h-2v-2a1 1 0 0 0-1-1h-2v-3h2a1 1 0 0 0 1-1v-2h2a1 1 0 0 0 1-1v-2h2a1 1 0 0 0 1-1v-2h2a1 1 0 0 0 1-1v-2h2a1 1 0 0 0 1-1v-2h2a1 1 0 0 0 1-1v-7a1 1 0 0 0-1-1z"/><path fill="#18193f" d="M33 11h-2V9a1 1 0 0 1 1-1h2v2a1 1 0 0 1-1 1zM30 14h-2v-2a1 1 0 0 1 1-1h2v2a1 1 0 0 1-1 1zM27 17h-2v-2a1 1 0 0 1 1-1h2v2a1 1 0 0 1-1 1zM24 20h-2v-2a1 1 0 0 1 1-1h2v2a1 1 0 0 1-1 1zM13 29h3v3h-3zM13 35h-3v-2a1 1 0 0 1 1-1h2v3zM16 32h3v3h-3zM15 38h-2v-3h3v2a1 1 0 0 1-1 1zM10 38v3H7v-3h3v-3H5a1 1 0 0 0-1 1v7a1 1 0 0 0 1 1h7a1 1 0 0 0 1-1v-5h-3zM33 23h-2v-2a1 1 0 0 1 1-1h2v2a1 1 0 0 1-1 1zM30 26h-2v-2a1 1 0 0 1 1-1h2v2a1 1 0 0 1-1 1zM27 29h-2v-2a1 1 0 0 1 1-1h2v2a1 1 0 0 1-1 1zM28 35h-3v-3h2a1 1 0 0 1 1 1v2zM28 35v3h-3v2a1 1 0 0 0 1 1h4a1 1 0 0 0 1-1v-4a1 1 0 0 0-1-1h-2zM16 23h-3v-3h2a1 1 0 0 1 1 1v2zM10 17H8a1 1 0 0 0-1 1v4a1 1 0 0 0 1 1h2v-3h3v-2a1 1 0 0 0-1-1h-2zM19 23h-3v6h3v-3zM13 23h-3v5a1 1 0 0 0 1 1h2v-6zM19 29h6v3h-6zM39 17h-2v-2a1 1 0 0 1 1-1h2v2a1 1 0 0 1-1 1zM36 20h-2v-2a1 1 0 0 1 1-1h2v2a1 1 0 0 1-1 1zM35 5a1 1 0 0 0-1 1v2h6v6h2a1 1 0 0 0 1-1V6a1 1 0 0 0-1-1h-7z"/></svg>