<svg xmlns="http://www.w3.org/2000/svg" width="550" height="550" viewBox="0 0 48 48"><path fill="#ffe082" d="M44.5 24.8c-4.4-1-6.1 3.8-9.8 3.8V10.5c0-1.4-1.1-2.5-2.5-2.5s-2.5 1.1-2.5 2.5v9.3h-.3c-.1-1.3-1.2-2.3-2.5-2.3-1.4 0-2.5 1.1-2.5 2.5v.1h-.2c-.4-.9-1.3-1.6-2.3-1.6-.9 0-1.6.4-2.1 1.1v-8.1c0-1.4-1.1-2.5-2.5-2.5s-2.5 1.1-2.5 2.5v18.8c0 3.2 1.8 6 4.5 7.3-.8.2-1.3.9-1.3 1.8v2.8c0 1 .8 1.9 1.9 1.9h12.2c1 0 1.9-.8 1.9-1.9v-2.8c0-.4-.1-.7-.3-1 1.1-.3 2.2-.9 2.9-1.5 4.1-4.1 5.7-5.3 8.4-7 2-1.4 2-4.5-.5-5.1z"/><path fill="none" stroke="#18193f" stroke-linecap="round" stroke-linejoin="round" stroke-miterlimit="10" stroke-width="3" d="M10.5 14.5V7c0-1.4 1.1-2.5 2.5-2.5h0c1.4 0 2.5 1.1 2.5 2.5M25.5 15.5V6c0-1.4 1.1-2.5 2.5-2.5h0c1.4 0 2.5 1.1 2.5 2.5v18.5c3.7 0 5.5-4.9 9.9-3.9 2.6.6 2.6 3.7.6 5-2.7 1.7-4.4 3-8.5 7.2-1 1-2.9 1.8-4.2 1.8h-9.4c-4.6 0-8.4-3.8-8.4-8.4v-5.7"/><path fill="none" stroke="#18193f" stroke-linecap="round" stroke-linejoin="round" stroke-miterlimit="10" stroke-width="3" d="M20.5 16.5V16c0-1.4 1.1-2.5 2.5-2.5h0c1.4 0 2.5 1.1 2.5 2.5v.5M15.5 17.5V17c0-1.4 1.1-2.5 2.5-2.5h0c1.4 0 2.5 1.1 2.5 2.5M15.5 7.5v10M21.9 41.5H16c-1.1 0-2-.9-2-2v-3c0-1.1.9-2 2-2h13.1c1.1 0 2 .9 2 2v3c0 1.1-.9 2-2 2h-1.9"/><path fill="#fff" stroke="#18193f" stroke-linecap="round" stroke-linejoin="round" stroke-miterlimit="10" stroke-width="3" d="m11.9 38 2 1.3v-2.6zM33.1 38l-2 1.3v-2.6z"/></svg>