<svg xmlns="http://www.w3.org/2000/svg" width="550" height="550" baseProfile="basic" viewBox="0 0 32 32"><circle cx="23" cy="11" r="6" fill="#e6a728"/><path fill="#79b5ba" d="M5.521 16.825C5.745 12.191 9.561 8.5 14.25 8.5c3.9 0 7.202 2.554 8.331 6.079a5.77 5.77 0 0 1 1.585-.246A5.834 5.834 0 0 1 24.167 26h-17.5A4.666 4.666 0 0 1 2 21.333c0-2.18 1.501-3.995 3.521-4.508z"/><path fill="#fff" d="M11.5 21.25h-1c0-2.014-1.629-3.652-3.631-3.652-.196 0-.39.017-.577.047l-.158-.988c.24-.038.484-.059.735-.059 2.554 0 4.631 2.087 4.631 4.652zM27.7 16.872a4.79 4.79 0 0 0-3.534-1.539c-.396 0-.813.066-1.311.208l-.932.265-.295-.922c-.917-2.862-3.33-4.896-6.298-5.31l.139-.99c3.352.467 6.076 2.764 7.112 5.995.59-.168 1.093-.246 1.584-.246 1.609 0 3.164.677 4.265 1.857l-.73.682z"/><path fill="#302529" d="M24.167 27h-17.5A5.673 5.673 0 0 1 1 21.333a5.647 5.647 0 0 1 3.581-5.253 9.73 9.73 0 0 1 12.181-8.247A6.995 6.995 0 0 1 23 4c3.86 0 7 3.14 7 7a6.95 6.95 0 0 1-1.298 4.061A6.783 6.783 0 0 1 31 20.167 6.84 6.84 0 0 1 24.167 27zM14.25 9.5a7.733 7.733 0 0 0-7.729 7.374l-.036.739-.717.182A3.654 3.654 0 0 0 3 21.333 3.671 3.671 0 0 0 6.667 25h17.5A4.838 4.838 0 0 0 29 20.167c0-1.67-.849-3.201-2.273-4.093-.55-.345-1.261-.565-1.261-.565s.587-.473 1.082-.987C27.47 13.564 28 12.328 28 11c0-2.757-2.243-5-5-5a4.997 4.997 0 0 0-4.728 3.386l-.346 1.028-.952-.414a7.698 7.698 0 0 0-2.724-.5z"/></svg>